<svg
	data-v-0dd9719b=""
	version="1.0"
	xmlns="http://www.w3.org/2000/svg"
	xmlns:xlink="http://www.w3.org/1999/xlink"
	width="100%"
	height="100%"
	viewBox="0 0 340.000000 250.000000"
	preserveAspectRatio="xMidYMid meet"
	color-interpolation-filters="sRGB"
	style="margin: auto"
>
	<rect
		data-v-0dd9719b=""
		x="0"
		y="0"
		width="100%"
		height="100%"
		fill="#fff"
		fill-opacity="1"
		class="background"
	></rect>
	<!---->
	<g
		data-v-0dd9719b=""
		fill="#0f0f0f"
		class="icon-text-wrapper icon-svg-group iconsvg"
		transform="translate(89.62999725341797,65.6744384765625)"
	>
		<g class="iconsvg-imagesvg" transform="translate(50.37000274658203,0)">
			<g>
				<rect
					fill="#0f0f0f"
					fill-opacity="0"
					stroke-width="2"
					x="0"
					y="0"
					width="60"
					height="66.65111473989403"
					class="image-rect"
				></rect>
				<svg
					filter="url(#colors8513684395)"
					x="0"
					y="0"
					width="60"
					height="66.65111473989403"
					filtersec="colorsf1996456828"
					class="image-svg-svg primary"
					style="overflow: visible"
				>
					<svg
						fill="#000000"
						xmlns="http://www.w3.org/2000/svg"
						xmlns:xlink="http://www.w3.org/1999/xlink"
						version="1.1"
						x="0px"
						y="0px"
						viewBox="6.699999809265137 1.899999976158142 86.60000610351562 96.19999694824219"
						style="enable-background: new 0 0 100 100"
						xml:space="preserve"
					>
						<g>
							<path
								d="M37.5,60.8h25.1c3.2,0,5.1-3.6,3.3-6.2L53.3,35.8c-1.6-2.4-5.1-2.4-6.7,0L34.1,54.6C32.4,57.2,34.3,60.8,37.5,60.8z"
							></path>
							<path
								d="M87.3,21.5L56,3.5c-1.9-1.1-3.9-1.6-6-1.6s-4.1,0.5-6,1.6L12.7,21.5c-3.7,2.1-6,6.1-6,10.4v36.1c0,4.3,2.3,8.2,6,10.4   L44,96.5c1.9,1.1,3.9,1.6,6,1.6s4.1-0.5,6-1.6l31.3-18.1c3.7-2.1,6-6.1,6-10.4V31.9C93.3,27.6,91,23.7,87.3,21.5z M87.3,68.1   c0,2.1-1.1,4.1-3,5.2L53,91.3c-0.9,0.5-2,0.8-3,0.8s-2.1-0.3-3-0.8L15.7,73.3c-1.9-1.1-3-3.1-3-5.2V31.9c0-2.1,1.1-4.1,3-5.2   L47,8.7c0.9-0.5,2-0.8,3-0.8s2.1,0.3,3,0.8l31.3,18.1c1.9,1.1,3,3.1,3,5.2V68.1z"
							></path>
						</g>
						<desc>Created with Snap</desc>
						<defs></defs>
					</svg>
				</svg>
				<defs>
					<filter id="colors8513684395">
						<feColorMatrix
							type="matrix"
							values="0 0 0 0 0.05859375  0 0 0 0 0.05859375  0 0 0 0 0.05859375  0 0 0 1 0"
							class="icon-fecolormatrix"
						></feColorMatrix>
					</filter>
					<filter id="colorsf1996456828">
						<feColorMatrix
							type="matrix"
							values="0 0 0 0 0.99609375  0 0 0 0 0.99609375  0 0 0 0 0.99609375  0 0 0 1 0"
							class="icon-fecolormatrix"
						></feColorMatrix>
					</filter>
					<filter id="colorsb2140160386">
						<feColorMatrix
							type="matrix"
							values="0 0 0 0 0  0 0 0 0 0  0 0 0 0 0  0 0 0 1 0"
							class="icon-fecolormatrix"
						></feColorMatrix>
					</filter>
				</defs>
			</g>
		</g>
		<g transform="translate(0,73.65111541748047)">
			<g data-gra="path-name" fill-rule="" class="tp-name iconsvg-namesvg">
				<g transform="scale(1)">
					<g>
						<path
							d="M18 0.6L18 0.6Q13.8 0.6 10.44-0.45 7.08-1.5 4.02-4.14L4.02-4.14Q3.24-4.8 2.82-5.64 2.4-6.48 2.4-7.32L2.4-7.32Q2.4-8.7 3.39-9.75 4.38-10.8 5.88-10.8L5.88-10.8Q7.02-10.8 7.92-10.08L7.92-10.08Q10.2-8.22 12.45-7.26 14.7-6.3 18-6.3L18-6.3Q20.22-6.3 22.08-6.99 23.94-7.68 25.08-8.85 26.22-10.02 26.22-11.52L26.22-11.52Q26.22-13.32 25.14-14.58 24.06-15.84 21.84-16.71 19.62-17.58 16.2-18.06L16.2-18.06Q12.96-18.54 10.5-19.53 8.04-20.52 6.39-22.05 4.74-23.58 3.9-25.65 3.06-27.72 3.06-30.3L3.06-30.3Q3.06-34.2 5.07-36.96 7.08-39.72 10.5-41.16 13.92-42.6 18.06-42.6L18.06-42.6Q21.96-42.6 25.29-41.43 28.62-40.26 30.72-38.46L30.72-38.46Q32.46-37.08 32.46-35.28L32.46-35.28Q32.46-33.96 31.44-32.88 30.42-31.8 29.04-31.8L29.04-31.8Q28.14-31.8 27.42-32.34L27.42-32.34Q26.46-33.18 24.84-33.93 23.22-34.68 21.42-35.19 19.62-35.7 18.06-35.7L18.06-35.7Q15.48-35.7 13.71-35.04 11.94-34.38 11.04-33.24 10.14-32.1 10.14-30.6L10.14-30.6Q10.14-28.8 11.19-27.63 12.24-26.46 14.22-25.77 16.2-25.08 18.96-24.54L18.96-24.54Q22.56-23.88 25.29-22.98 28.02-22.08 29.82-20.67 31.62-19.26 32.52-17.13 33.42-15 33.42-11.94L33.42-11.94Q33.42-8.04 31.26-5.22 29.1-2.4 25.59-0.9 22.08 0.6 18 0.6ZM70.56-16.02L70.56-16.02Q70.56-11.1 68.37-7.35 66.18-3.6 62.49-1.5 58.8 0.6 54.24 0.6L54.24 0.6Q49.68 0.6 45.99-1.5 42.3-3.6 40.11-7.35 37.92-11.1 37.92-16.02L37.92-16.02Q37.92-20.94 40.11-24.69 42.3-28.44 45.99-30.57 49.68-32.7 54.24-32.7L54.24-32.7Q58.8-32.7 62.49-30.57 66.18-28.44 68.37-24.69 70.56-20.94 70.56-16.02ZM63.36-16.02L63.36-16.02Q63.36-19.08 62.13-21.33 60.9-23.58 58.83-24.84 56.76-26.1 54.24-26.1L54.24-26.1Q51.72-26.1 49.65-24.84 47.58-23.58 46.35-21.33 45.12-19.08 45.12-16.02L45.12-16.02Q45.12-13.02 46.35-10.77 47.58-8.52 49.65-7.26 51.72-6 54.24-6L54.24-6Q56.76-6 58.83-7.26 60.9-8.52 62.13-10.77 63.36-13.02 63.36-16.02ZM84.36-40.74L84.36-3.66Q84.36-2.1 83.31-1.05 82.26 0 80.7 0L80.7 0Q79.2 0 78.18-1.05 77.16-2.1 77.16-3.66L77.16-3.66 77.16-40.74Q77.16-42.3 78.21-43.35 79.26-44.4 80.82-44.4L80.82-44.4Q82.38-44.4 83.37-43.35 84.36-42.3 84.36-40.74L84.36-40.74ZM118.74-32.7L118.74-32.7Q120.3-32.7 121.32-31.68 122.34-30.66 122.34-29.04L122.34-29.04 122.34-3.66Q122.34-2.1 121.32-1.05 120.3 0 118.74 0L118.74 0Q117.18 0 116.16-1.05 115.14-2.1 115.14-3.66L115.14-3.66 115.14-6.6 116.46-6.06Q116.46-5.28 115.62-4.17 114.78-3.06 113.34-1.98 111.9-0.9 109.95-0.15 108 0.6 105.72 0.6L105.72 0.6Q101.58 0.6 98.22-1.53 94.86-3.66 92.91-7.41 90.96-11.16 90.96-16.02L90.96-16.02Q90.96-20.94 92.91-24.69 94.86-28.44 98.16-30.57 101.46-32.7 105.48-32.7L105.48-32.7Q108.06-32.7 110.22-31.92 112.38-31.14 113.97-29.94 115.56-28.74 116.43-27.51 117.3-26.28 117.3-25.44L117.3-25.44 115.14-24.66 115.14-29.04Q115.14-30.6 116.16-31.65 117.18-32.7 118.74-32.7ZM106.62-6L106.62-6Q109.26-6 111.24-7.32 113.22-8.64 114.33-10.92 115.44-13.2 115.44-16.02L115.44-16.02Q115.44-18.9 114.33-21.18 113.22-23.46 111.24-24.78 109.26-26.1 106.62-26.1L106.62-26.1Q104.04-26.1 102.06-24.78 100.08-23.46 98.97-21.18 97.86-18.9 97.86-16.02L97.86-16.02Q97.86-13.2 98.97-10.92 100.08-8.64 102.06-7.32 104.04-6 106.62-6ZM133.74 0L133.74 0Q132.18 0 131.16-1.05 130.14-2.1 130.14-3.66L130.14-3.66 130.14-28.44Q130.14-30 131.16-31.05 132.18-32.1 133.74-32.1L133.74-32.1Q135.3-32.1 136.32-31.05 137.34-30 137.34-28.44L137.34-28.44 137.34-22.8 136.92-26.82Q137.58-28.26 138.63-29.37 139.68-30.48 141-31.23 142.32-31.98 143.82-32.34 145.32-32.7 146.82-32.7L146.82-32.7Q148.62-32.7 149.85-31.68 151.08-30.66 151.08-29.28L151.08-29.28Q151.08-27.3 150.06-26.43 149.04-25.56 147.84-25.56L147.84-25.56Q146.7-25.56 145.77-25.98 144.84-26.4 143.64-26.4L143.64-26.4Q142.56-26.4 141.45-25.89 140.34-25.38 139.41-24.3 138.48-23.22 137.91-21.63 137.34-20.04 137.34-17.88L137.34-17.88 137.34-3.66Q137.34-2.1 136.32-1.05 135.3 0 133.74 0ZM162.96-28.44L162.96-3.66Q162.96-2.1 161.94-1.05 160.92 0 159.36 0L159.36 0Q157.8 0 156.78-1.05 155.76-2.1 155.76-3.66L155.76-3.66 155.76-28.44Q155.76-30 156.78-31.05 157.8-32.1 159.36-32.1L159.36-32.1Q160.92-32.1 161.94-31.05 162.96-30 162.96-28.44L162.96-28.44ZM159.3-36L159.3-36Q157.26-36 156.42-36.66 155.58-37.32 155.58-39L155.58-39 155.58-40.14Q155.58-41.88 156.51-42.51 157.44-43.14 159.36-43.14L159.36-43.14Q161.46-43.14 162.3-42.48 163.14-41.82 163.14-40.14L163.14-40.14 163.14-39Q163.14-37.26 162.24-36.63 161.34-36 159.3-36Z"
							transform="translate(-2.4000000953674316, 44.400001525878906)"
						></path>
					</g>
					<!---->
					<!---->
					<!---->
					<!---->
					<!---->
					<!---->
					<!---->
				</g>
			</g>
			<!---->
		</g>
	</g>
	<defs v-gra="od"></defs>
</svg>
